<?xml version="1.0" encoding="utf-8"?>
<!-- Generator: Adobe Illustrator 19.0.0, SVG Export Plug-In . SVG Version: 6.00 Build 0)  -->
<svg version="1.1" id="Layer_1" xmlns="http://www.w3.org/2000/svg" xmlns:xlink="http://www.w3.org/1999/xlink" x="0px" y="0px"
	 viewBox="-49 118.9 156.8 20.1" style="enable-background:new -49 118.9 156.8 20.1;" xml:space="preserve">
<style type="text/css">
	.st0{fill:#FFFFFF;}
	.st1{fill:#111111;}
</style>
<g id="XMLID_2_">
	<path id="XMLID_33_" class="st0" d="M-42,131.8h-3.1v6.9H-49v-18.8h7c2.2,0,3.9,0.5,5.1,1.5c1.2,1,1.8,2.4,1.8,4.2
		c0,1.3-0.3,2.4-0.8,3.2c-0.6,0.9-1.4,1.5-2.5,2l4.1,7.7v0.2h-4.2L-42,131.8z M-45.1,128.7h3.1c1,0,1.7-0.2,2.3-0.7
		c0.5-0.5,0.8-1.2,0.8-2c0-0.9-0.3-1.6-0.8-2.1s-1.3-0.8-2.3-0.8h-3.1V128.7z"/>
	<path id="XMLID_30_" class="st0" d="M-25.9,139c-2,0-3.7-0.6-5-1.9c-1.3-1.3-1.9-2.9-1.9-5v-0.4c0-1.4,0.3-2.7,0.8-3.8
		s1.3-2,2.3-2.6s2.1-0.9,3.4-0.9c1.9,0,3.4,0.6,4.5,1.8c1.1,1.2,1.6,2.9,1.6,5.1v1.5h-8.9c0.1,0.9,0.5,1.6,1.1,2.2
		c0.6,0.6,1.4,0.8,2.3,0.8c1.4,0,2.6-0.5,3.4-1.6l1.8,2.1c-0.6,0.8-1.3,1.4-2.3,1.9C-23.7,138.8-24.8,139-25.9,139z M-26.4,127.5
		c-0.7,0-1.3,0.3-1.8,0.8s-0.8,1.2-0.9,2.2h5.2v-0.3c0-0.8-0.2-1.5-0.7-1.9C-25,127.7-25.6,127.5-26.4,127.5z"/>
	<path id="XMLID_28_" class="st0" d="M-10.5,134.9c0-0.5-0.2-0.8-0.7-1.1s-1.2-0.5-2.2-0.7c-3.3-0.7-5-2.1-5-4.2
		c0-1.2,0.5-2.3,1.5-3.1c1-0.8,2.4-1.2,4-1.2c1.8,0,3.2,0.4,4.3,1.3c1.1,0.8,1.6,1.9,1.6,3.3h-3.7c0-0.5-0.2-1-0.5-1.3
		c-0.3-0.3-0.9-0.5-1.6-0.5c-0.6,0-1.1,0.1-1.5,0.4s-0.5,0.6-0.5,1.1c0,0.4,0.2,0.7,0.6,1c0.4,0.3,1.1,0.5,2,0.7
		c0.9,0.2,1.7,0.4,2.3,0.6c2,0.7,3,2,3,3.8c0,1.3-0.5,2.3-1.6,3.1s-2.5,1.2-4.2,1.2c-1.2,0-2.2-0.2-3.1-0.6c-0.9-0.4-1.6-1-2.1-1.7
		s-0.8-1.5-0.8-2.4h3.5c0,0.7,0.3,1.2,0.7,1.5c0.5,0.4,1.1,0.5,1.8,0.5s1.3-0.1,1.6-0.4C-10.7,135.7-10.5,135.3-10.5,134.9z"/>
	<path id="XMLID_26_" class="st0" d="M0,121.3v3.4h2.4v2.7H0v7c0,0.5,0.1,0.9,0.3,1.1s0.6,0.3,1.1,0.3c0.4,0,0.8,0,1.1-0.1v2.8
		c-0.7,0.2-1.5,0.3-2.3,0.3c-2.6,0-4-1.3-4-4v-7.3h-2v-2.7h2v-3.5H0z"/>
	<path id="XMLID_23_" class="st0" d="M3.5,131.6c0-1.4,0.3-2.6,0.8-3.7s1.3-1.9,2.3-2.5s2.2-0.9,3.5-0.9c1.9,0,3.4,0.6,4.6,1.7
		c1.2,1.2,1.9,2.7,2,4.7v1c0,2.1-0.6,3.9-1.8,5.2s-2.8,1.9-4.8,1.9s-3.6-0.6-4.8-1.9c-1.2-1.3-1.8-3-1.8-5.3V131.6z M7.2,131.9
		c0,1.3,0.2,2.3,0.7,3c0.5,0.7,1.2,1.1,2.1,1.1c0.9,0,1.6-0.3,2.1-1s0.8-1.8,0.8-3.3c0-1.3-0.3-2.3-0.8-3c-0.4-0.8-1.1-1.2-2-1.2
		s-1.6,0.4-2.1,1.1C7.5,129.3,7.2,130.4,7.2,131.9z"/>
	<path id="XMLID_20_" class="st1" d="M23.1,132.1v6.6h-3.9v-18.8h7.3c1.4,0,2.7,0.3,3.7,0.8c1.1,0.5,1.9,1.3,2.5,2.2
		c0.6,1,0.9,2,0.9,3.2c0,1.8-0.6,3.3-1.9,4.4s-3,1.6-5.2,1.6C26.5,132.1,23.1,132.1,23.1,132.1z M23.1,129h3.5c1,0,1.8-0.2,2.3-0.7
		s0.8-1.2,0.8-2.1s-0.3-1.7-0.8-2.2c-0.5-0.6-1.3-0.9-2.2-0.9h-3.5v5.9H23.1z"/>
	<path id="XMLID_18_" class="st1" d="M43.9,128.3c-0.5-0.1-1-0.1-1.3-0.1c-1.4,0-2.3,0.5-2.8,1.4v9.1h-3.7v-14h3.5l0.1,1.7
		c0.7-1.3,1.8-1.9,3.1-1.9c0.4,0,0.8,0.1,1.2,0.2L43.9,128.3z"/>
	<path id="XMLID_15_" class="st1" d="M53.4,138.7c-0.2-0.3-0.3-0.8-0.4-1.3c-0.9,1-2.1,1.5-3.5,1.5s-2.5-0.4-3.4-1.2s-1.3-1.8-1.3-3
		c0-1.5,0.5-2.6,1.6-3.4s2.7-1.2,4.8-1.2h1.7v-0.8c0-0.6-0.2-1.2-0.5-1.5c-0.3-0.4-0.9-0.6-1.6-0.6c-0.6,0-1.1,0.2-1.5,0.5
		c-0.4,0.3-0.5,0.7-0.5,1.2h-3.7c0-0.8,0.2-1.6,0.7-2.2c0.5-0.6,1.2-1.2,2.1-1.6s1.9-0.6,3.1-0.6c1.7,0,3.1,0.4,4.1,1.3
		s1.5,2.1,1.5,3.6v6.1c0,1.3,0.2,2.3,0.6,3v0.2C57.2,138.7,53.4,138.7,53.4,138.7z M50.3,136.1c0.6,0,1.1-0.1,1.5-0.4
		c0.5-0.2,0.8-0.6,1-1v-2.4h-1.4c-1.9,0-2.9,0.6-3,1.9v0.2c0,0.5,0.2,0.8,0.5,1.1C49.3,136,49.7,136.1,50.3,136.1z"/>
	<path id="XMLID_13_" class="st1" d="M64.6,133.1l-1.3,1.3v4.3h-3.7v-19.8h3.7v11L64,129l3.6-4.2h4.5l-5,5.8l5.5,8.1h-4.3
		L64.6,133.1z"/>
	<path id="XMLID_11_" class="st1" d="M78.1,121.3v3.4h2.4v2.7h-2.4v7c0,0.5,0.1,0.9,0.3,1.1c0.2,0.2,0.6,0.3,1.1,0.3
		c0.4,0,0.8,0,1.1-0.1v2.8c-0.7,0.2-1.5,0.3-2.3,0.3c-2.6,0-4-1.3-4-4v-7.3h-2v-2.7h2v-3.5H78.1z"/>
	<path id="XMLID_8_" class="st1" d="M82.5,121.1c0-0.6,0.2-1,0.6-1.4c0.4-0.4,0.9-0.5,1.5-0.5s1.1,0.2,1.5,0.5
		c0.4,0.4,0.6,0.8,0.6,1.4c0,0.6-0.2,1-0.6,1.4c-0.4,0.4-0.9,0.5-1.5,0.5s-1.1-0.2-1.5-0.5C82.7,122.2,82.5,121.7,82.5,121.1z
		 M86.5,138.7h-3.7v-14h3.7V138.7z"/>
	<path id="XMLID_6_" class="st1" d="M94.6,133.1l-1.3,1.3v4.3h-3.7v-19.8h3.7v11L94,129l3.6-4.2h4.5l-5,5.8l5.5,8.1h-4.3L94.6,133.1
		z"/>
	<path id="XMLID_3_" class="st1" d="M103.6,121.1c0-0.6,0.2-1,0.6-1.4c0.4-0.4,0.9-0.5,1.5-0.5s1.1,0.2,1.5,0.5
		c0.4,0.4,0.6,0.8,0.6,1.4c0,0.6-0.2,1-0.6,1.4c-0.4,0.4-0.9,0.5-1.5,0.5s-1.1-0.2-1.5-0.5C103.8,122.2,103.6,121.7,103.6,121.1z
		 M107.6,138.7h-3.7v-14h3.7V138.7z"/>
</g>
</svg>
