<?xml version="1.0" encoding="utf-8"?>
<!-- Generator: Adobe Illustrator 19.0.0, SVG Export Plug-In . SVG Version: 6.00 Build 0)  -->
<svg version="1.1" id="Layer_1" xmlns="http://www.w3.org/2000/svg" xmlns:xlink="http://www.w3.org/1999/xlink" x="0px" y="0px"
	 viewBox="0 0 54.7 54.7" style="enable-background:new 0 0 54.7 54.7;" xml:space="preserve">
<style type="text/css">
	.st0{fill:#EC1C25;}
	.st1{fill:#FFFFFF;}
</style>
<circle id="XMLID_1_" class="st0" cx="27.3" cy="27.3" r="27.3"/>
<g id="XMLID_5_">
	<path id="XMLID_9_" class="st1" d="M20.6,29.5h-2.7v6h-3.4V19.1h6.1c1.9,0,3.4,0.4,4.5,1.3c1.1,0.9,1.6,2.1,1.6,3.7
		c0,1.1-0.2,2.1-0.7,2.8c-0.5,0.8-1.2,1.3-2.2,1.8l3.6,6.7v0.2h-3.6L20.6,29.5z M17.9,26.8h2.7c0.9,0,1.5-0.2,2-0.7
		c0.5-0.4,0.7-1,0.7-1.8c0-0.8-0.2-1.4-0.7-1.8s-1.1-0.7-2-0.7h-2.7V26.8z"/>
	<path id="XMLID_2_" class="st1" d="M33.9,29.8v5.8h-3.4V19.1H37c1.2,0,2.3,0.2,3.3,0.7c0.9,0.5,1.7,1.1,2.2,1.9
		c0.5,0.8,0.8,1.8,0.8,2.8c0,1.6-0.6,2.9-1.7,3.8c-1.1,0.9-2.6,1.4-4.6,1.4H33.9z M33.9,27h3c0.9,0,1.6-0.2,2.1-0.6
		c0.5-0.4,0.7-1,0.7-1.8c0-0.8-0.2-1.5-0.7-2c-0.5-0.5-1.1-0.8-2-0.8h-3.1V27z"/>
</g>
</svg>
